<svg width="24" height="23" viewBox="0 0 24 23" fill="none" xmlns="http://www.w3.org/2000/svg">
    <path
        d="M10.9001 4.47201C10.9001 6.38955 9.3456 7.94402 7.42806 7.94402C5.51053 7.94402 3.95605 6.38955 3.95605 4.47201C3.95605 2.55447 5.51053 1 7.42806 1C9.3456 1 10.9001 2.55447 10.9001 4.47201Z"
        stroke="#828282" stroke-width="2" />
    <path
        d="M13.2644 11.3948C12.7339 10.8642 12.1022 10.4852 11.3948 10.2325C10.2831 11.0158 8.89349 11.4706 7.42808 11.4706C5.96268 11.4706 4.59834 11.0158 3.46139 10.2325C1.44014 10.94 0 12.8349 0 15.0835V17.6606C0 18.1659 0.429515 18.5955 0.934827 18.5955H11.698C11.3442 17.4838 11.2937 15.9931 11.9759 14.0476C12.3296 13.1381 12.7591 12.2791 13.2644 11.3948Z"
        fill="#828282" />
    <path
        d="M23.8 3.41083C23.3957 3.2087 21.1724 4.95203 18.8985 7.40279C18.8732 7.42805 18.8479 7.45332 18.8479 7.50385L18.0647 11.5716L17.4583 9.49983C17.4078 9.3735 17.2309 9.32297 17.1551 9.4493C16.4477 10.3336 15.7908 11.2432 15.2349 12.1527C15.2097 12.178 15.2097 12.2285 15.2097 12.279L15.7655 16.4479L14.3254 14.6035C14.2496 14.5024 14.0727 14.5277 14.0222 14.654C13.3148 16.5489 13.3148 18.2417 14.6538 19.3534L12.8853 22.259C12.7589 22.4863 12.9105 22.739 13.1632 22.739H14.6286C14.7802 22.739 14.9065 22.6379 14.9318 22.4863C15.0328 22.0316 15.3107 20.9957 15.7403 19.985C18.0647 20.8693 19.9343 18.9239 21.2734 16.0689C21.324 15.9426 21.2229 15.791 21.0966 15.8162L18.7721 16.1447L22.3346 13.3149C22.3598 13.2897 22.3851 13.2644 22.3851 13.2391C22.7388 12.1275 23.042 10.9652 23.2947 9.87881C23.3199 9.75249 23.2189 9.65142 23.0925 9.67669L20.5913 10.1567L23.6737 7.52912C23.6989 7.50385 23.7242 7.45332 23.7242 7.42805C24.0779 5.20468 24.0779 3.56242 23.8 3.41083Z"
        fill="#828282" />
</svg>