<svg width="24" height="24" viewBox="0 0 24 24" fill="none" xmlns="http://www.w3.org/2000/svg">
<path d="M1.14453 0.744019V23.244H3.11822V15.744H22.8551V0.744019H1.14453ZM3.11822 2.61902H6.07874V5.43152H9.03927V2.61902H11.9998V5.43152H14.9603V2.61902H17.9208V5.43152H20.8814V8.24402H17.9208V11.0565H20.8814V13.869H17.9208V11.0565H14.9603V13.869H11.9998V11.0565H9.03927V13.869H6.07874V11.0565H3.11822V8.24402H6.07874V5.43152H3.11822V2.61902ZM6.07874 8.24402V11.0565H9.03927V8.24402H6.07874ZM9.03927 8.24402H11.9998V5.43152H9.03927V8.24402ZM11.9998 8.24402V11.0565H14.9603V8.24402H11.9998ZM14.9603 8.24402H17.9208V5.43152H14.9603V8.24402Z" fill="#828282"/>
</svg>
