<svg width="20" height="25" viewBox="0 0 20 25" fill="none" xmlns="http://www.w3.org/2000/svg">
<g clip-path="url(#clip0_11_610)">
<path d="M7.96306 0.638672C7.74131 0.638672 7.52865 0.727378 7.37184 0.885276C7.21504 1.04317 7.12695 1.25733 7.12695 1.48063V20.7254C7.12695 20.9487 7.21504 21.1628 7.37184 21.3207C7.52865 21.4786 7.74131 21.5673 7.96306 21.5673C8.18481 21.5673 8.39748 21.4786 8.55428 21.3207C8.71109 21.1628 8.79918 20.9487 8.79918 20.7254V11.945H19.0714C19.2931 11.945 19.5058 11.8563 19.6626 11.6984C19.8194 11.5405 19.9075 11.3263 19.9075 11.103V1.48063C19.9075 1.25733 19.8194 1.04317 19.6626 0.885276C19.5058 0.727378 19.2931 0.638672 19.0714 0.638672H8.08251C8.06226 0.638734 8.04202 0.639536 8.02183 0.641077C8.00228 0.639582 7.98268 0.638779 7.96306 0.638672ZM11.2597 2.32259H13.6008V4.10994H15.942V2.32259H18.2353V4.10994H15.942V6.46719H18.2353V8.82467H15.942V10.261H13.6008V8.82491H11.2597V10.261H8.91862V8.82491H11.2597V6.46719H8.91862V4.1097H11.2597V2.32259ZM11.2597 4.10994V6.46719H13.6008V4.1097H11.2597V4.10994ZM13.6008 6.46719V8.82491L15.942 8.82467V6.46719H13.6008Z" fill="#828282"/>
<path d="M5.09734 19.1117C2.56655 19.4721 0.796387 20.3337 0.796387 21.6017C0.796387 23.3097 3.75407 24.6946 7.96305 24.6946C12.172 24.6946 15.1297 23.3099 15.1297 21.6017C15.1297 20.3335 13.3596 19.4721 10.829 19.1119L10.4783 19.7131C12.3858 19.9794 13.6964 20.5397 13.6964 21.1894C13.6964 22.1004 11.1295 22.8389 7.96305 22.8389C4.79658 22.8389 2.22972 22.1004 2.22972 21.1894C2.22948 20.5418 3.53166 19.9823 5.44493 19.7148C5.3293 19.5137 5.2132 19.313 5.09734 19.1117Z" fill="#828282"/>
</g>
<defs>
<clipPath id="clip0_11_610">
<rect width="19.9074" height="24.0559" fill="white" transform="translate(0 0.638672)"/>
</clipPath>
</defs>
</svg>
