<?xml version="1.0" encoding="utf-8"?>
<!DOCTYPE svg PUBLIC "-//W3C//DTD SVG 1.1//EN" "http://www.w3.org/Graphics/SVG/1.1/DTD/svg11.dtd">
<svg width="24" height="24" viewBox="0 0 24 25" fill="transparent" xmlns="http://www.w3.org/2000/svg">
    <path
        d="M12 24.0554C8.8174 24.0554 5.76516 22.7911 3.51472 20.5407C1.26428 18.2903 0 15.238 0 12.0554C0 8.87282 1.26428 5.82058 3.51472 3.57014C5.76516 1.3197 8.8174 0.0554199 12 0.0554199C15.1826 0.0554199 18.2348 1.3197 20.4853 3.57014C22.7357 5.82058 24 8.87282 24 12.0554C24 15.238 22.7357 18.2903 20.4853 20.5407C18.2348 22.7911 15.1826 24.0554 12 24.0554ZM12 21.6554C14.5461 21.6554 16.9879 20.644 18.7882 18.8436C20.5886 17.0433 21.6 14.6015 21.6 12.0554C21.6 9.50934 20.5886 7.06754 18.7882 5.2672C16.9879 3.46685 14.5461 2.45542 12 2.45542C9.45392 2.45542 7.01212 3.46685 5.21178 5.2672C3.41143 7.06754 2.4 9.50934 2.4 12.0554C2.4 14.6015 3.41143 17.0433 5.21178 18.8436C7.01212 20.644 9.45392 21.6554 12 21.6554ZM10.8 12.5474V4.85542H13.2V11.5634L17.94 16.3034L16.248 17.9954L10.8 12.5474Z"
        fill="var(--color-text-03)" />
</svg>